<?xml version="1.0" encoding="utf-8"?>
<!-- Generator: Adobe Illustrator 25.0.1, SVG Export Plug-In . SVG Version: 6.00 Build 0)  -->
<svg version="1.1" id="Layer_1" xmlns="http://www.w3.org/2000/svg" xmlns:xlink="http://www.w3.org/1999/xlink" x="0px" y="0px"
	 viewBox="0 0 185.5 45.8" style="enable-background:new 0 0 185.5 45.8;" xml:space="preserve">
<style type="text/css">
	.st0{enable-background:new    ;}
</style>
<image style="overflow:visible;enable-background:new    ;" width="43" height="43" id="_20181105_234152_0001" xlink:href="F5009079.png"  transform="matrix(1 0 0 1 2.625 2)">
</image>
<g class="st0">
	<path d="M69.4,34.2C62.3,34.2,57,29.2,57,22c0-7.4,5.5-12.1,12.5-12.1c3.2,0,6.7,1.2,8.6,3.4L74.3,17c-1-1.4-2.9-2.1-4.7-2.1
		c-3.9,0-6.6,3-6.6,7.1c0,4.2,2.7,7.1,6.5,7.1c2.2,0,3.9-1,4.9-2.3l3.9,3.6C76.3,32.7,73.2,34.2,69.4,34.2z"/>
	<path d="M89,24.8h-2.8v8.7h-5.6v-23h8.5c5,0,9,1.8,9,7.1C98.2,22.9,93.9,24.8,89,24.8z M88.7,15h-2.4v5.4h2.3c2.1,0,4-0.6,4-2.8
		C92.6,15.4,90.7,15,88.7,15z"/>
	<path d="M122.4,33.5l0.1-16.3h-0.1l-6,16.3h-3.9l-5.8-16.3h-0.1l0.1,16.3h-5.2v-23h7.9l5.2,14.8h0.1l5-14.8h8v23H122.4z"/>
	<path d="M135.2,33.9c-1.8,0-3.3-1.4-3.3-3.2c0-1.8,1.5-3.2,3.3-3.2c1.8,0,3.3,1.4,3.3,3.2S136.9,33.9,135.2,33.9z"/>
	<path d="M142.4,33.5v-23h5.6v23H142.4z"/>
	<path d="M161.3,33.5h-8.6v-23h8.3c6.5,0,13.2,2.7,13.2,11.5C174.2,30,167.7,33.5,161.3,33.5z M160.9,15.2h-2.8v13.5h2.6
		c4,0,7.6-1.6,7.6-6.8C168.5,16.8,164.8,15.2,160.9,15.2z"/>
</g>
</svg>
